5536c1f5754cabeca2be7e5ed9e73915 *tests/data/fate/hevc-bsf-dts2pts-idr.mov
2099183 tests/data/fate/hevc-bsf-dts2pts-idr.mov
#extradata 0:      119, 0x62951c6e
#tb 0: 1/1200000
#media_type 0: video
#codec_id 0: hevc
#dimensions 0: 2560x1600
#sar 0: 0/1
0,    -144000,          0,    48000,   163193, 0xa0df4126
0,     -96000,     384000,    48000,   108743, 0x38ecef2d, F=0x0
0,     -48000,     192000,    48000,    49821, 0x9cae4107, F=0x0
0,          0,      96000,    48000,    31671, 0x25407a22, F=0x0
0,      48000,      48000,    48000,    11543, 0x828498a0, F=0x0
0,      96000,     144000,    48000,    10615, 0xd387b120, F=0x0
0,     144000,     288000,    48000,    31879, 0xe80fe84e, F=0x0
0,     192000,     240000,    48000,    10780, 0xd6e7eede, F=0x0
0,     240000,     336000,    48000,    10394, 0x3d2e5beb, F=0x0
0,     288000,     768000,    48000,   104253, 0x2197864b, F=0x0
0,     336000,     576000,    48000,    49395, 0x0f2ac948, F=0x0
0,     384000,     480000,    48000,    31408, 0x1c294edc, F=0x0
0,     432000,     432000,    48000,    10632, 0x1e03c060, F=0x0
0,     480000,     528000,    48000,    10363, 0x31041014, F=0x0
0,     528000,     672000,    48000,    31610, 0x3a18b0af, F=0x0
0,     576000,     624000,    48000,    10513, 0xbdde91bf, F=0x0
0,     624000,     720000,    48000,    10761, 0x5a61daa0, F=0x0
0,     672000,    1152000,    48000,   102009, 0x5dcc9a7a, F=0x0
0,     720000,     960000,    48000,    48966, 0xf1027069, F=0x0
0,     768000,     864000,    48000,    31541, 0xe5b83109, F=0x0
0,     816000,     816000,    48000,    11105, 0xfb6cb0d0, F=0x0
0,     864000,     912000,    48000,    10958, 0xbb766750, F=0x0
0,     912000,    1056000,    48000,    30581, 0x9cfcb180, F=0x0
0,     960000,    1008000,    48000,    10885, 0x6ac33d97, F=0x0
0,    1008000,    1104000,    48000,    10585, 0xb5a6932a, F=0x0
0,    1056000,    1536000,    48000,   163782, 0x4a0039f9
0,    1104000,    1344000,    48000,    48606, 0x3ca2bbaa, F=0x0
0,    1152000,    1248000,    48000,    30233, 0x7ea3fa83, F=0x0
0,    1200000,    1200000,    48000,    10572, 0xb3ecb899, F=0x0
0,    1248000,    1296000,    48000,    10596, 0x6d28c65e, F=0x0
0,    1296000,    1440000,    48000,    30895, 0x60bd15f2, F=0x0
0,    1344000,    1392000,    48000,    10008, 0xb5c27236, F=0x0
0,    1392000,    1488000,    48000,    10707, 0x5ad3c069, F=0x0
0,    1440000,    1920000,    48000,   106762, 0x8d85c1d1, F=0x0
0,    1488000,    1728000,    48000,    49573, 0xed3814ba, F=0x0
0,    1536000,    1632000,    48000,    31445, 0x11961e77, F=0x0
0,    1584000,    1584000,    48000,    10557, 0x53be65fa, F=0x0
0,    1632000,    1680000,    48000,    10430, 0x3378691c, F=0x0
0,    1680000,    1824000,    48000,    30660, 0xee25a59f, F=0x0
0,    1728000,    1776000,    48000,    10519, 0x996b5119, F=0x0
0,    1776000,    1872000,    48000,    10437, 0xfc711a42, F=0x0
0,    1824000,    2256001,    48000,   103947, 0x4468d423, F=0x0
0,    1872000,    2112000,    48000,    49385, 0xa37ab88e, F=0x0
0,    1920000,    2016000,    48000,    30913, 0xefe92237, F=0x0
0,    1968000,    1968000,    48000,    10369, 0x3cdfe4d9, F=0x0
0,    2016000,    2064000,    48000,    10264, 0x4a3316a9, F=0x0
0,    2064000,    2208000,    48000,    31460, 0xb9bb51e0, F=0x0
0,    2112000,    2160000,    48000,    10339, 0xd1722293, F=0x0
0,    2160000,    2256000,    48000,    10386, 0x352647dd, F=0x0
0,    2208000,    2256011,    48000,   102855, 0xf73a53cd, F=0x0
0,    2256000,    2256006,        1,    48949, 0x7a001fe6, F=0x0
0,    2256001,    2256004,        1,    31419, 0x973ff917, F=0x0
0,    2256002,    2256002,        2,    10845, 0xaa650a19, F=0x0
0,    2256004,    2256005,        1,    10671, 0x69c7d357, F=0x0
0,    2256005,    2256008,        1,    30951, 0xebed3d9c, F=0x0
0,    2256006,    2256007,        1,    10525, 0xc6727243, F=0x0
0,    2256007,    2256010,        1,    10205, 0x0c6bbc1d, F=0x0
0,    2256008,    2256008,        2,    37793, 0xfd79bdd2, F=0x0
0,    2256010,    2256012,        1,    10607, 0x9e689b6d, F=0x0
0,    2256011,    2256011,        1,    15672, 0x7fa574e9, F=0x0
